# xmcd
#
# Track frame offsets:
#	150
#	23188
#	37419
#	55327
#	74842
#	83554
#	86408
#	139012
#	166746
#	196666
#
# Disc length: 3175 seconds
#
# Revision: 1
# Processed by: cddbd v1.5.2PL0 Copyright (c) Steve Scherf et al.
# Submitted via: audiograbber 1.83.01
#
DISCID=830c650a
DTITLE=Grateful Dead - 69-07-04 Electric Theatre, Chicago IL
DYEAR=1900
DGENRE=
TTITLE0=Hard To Handle
TTITLE1=Mama Tried
TTITLE2=Slewfoot
TTITLE3=Silver Threads and Golden Needles
TTITLE4=Cryptical Envelopment
TTITLE5=Drums
TTITLE6=The Other One
TTITLE7=High Time
TTITLE8=Casey Jones
TTITLE9=King Bee
EXTD=
EXTT0=
EXTT1=
EXTT2=
EXTT3=
EXTT4=
EXTT5=
EXTT6=
EXTT7=
EXTT8=
EXTT9=
PLAYORDER=
